<svg width="33" height="33" viewBox="0 0 33 33" fill="none" xmlns="http://www.w3.org/2000/svg">
<rect x="0.662598" y="0.34082" width="32" height="32" rx="4" fill="#F5F8FE"/>
<g clip-path="url(#clip0_150_3145)">
<path d="M19.0628 23.6741C19.0628 23.4973 18.9926 23.3277 18.8676 23.2027C18.7425 23.0777 18.573 23.0074 18.3962 23.0074H14.3962C14.2193 23.0074 14.0498 23.0777 13.9248 23.2027C13.7997 23.3277 13.7295 23.4973 13.7295 23.6741C13.7295 23.8509 13.7997 24.0205 13.9248 24.1455C14.0498 24.2705 14.2193 24.3408 14.3962 24.3408H18.3962C18.573 24.3408 18.7425 24.2705 18.8676 24.1455C18.9926 24.0205 19.0628 23.8509 19.0628 23.6741Z" fill="#225CF3"/>
<path d="M19.6891 20.3408H15.6891C15.5123 20.3408 15.3427 20.4111 15.2177 20.5361C15.0927 20.6611 15.0225 20.8307 15.0225 21.0075C15.0225 21.1843 15.0927 21.3539 15.2177 21.4789C15.3427 21.6039 15.5123 21.6742 15.6891 21.6742H19.6891C19.8659 21.6742 20.0355 21.6039 20.1605 21.4789C20.2856 21.3539 20.3558 21.1843 20.3558 21.0075C20.3558 20.8307 20.2856 20.6611 20.1605 20.5361C20.0355 20.4111 19.8659 20.3408 19.6891 20.3408Z" fill="#225CF3"/>
<path d="M19.3293 25.6742H15.3293C15.1525 25.6742 14.9829 25.7444 14.8579 25.8695C14.7328 25.9945 14.6626 26.1641 14.6626 26.3409C14.6626 26.5177 14.7328 26.6872 14.8579 26.8123C14.9829 26.9373 15.1525 27.0075 15.3293 27.0075H19.3293C19.5061 27.0075 19.6756 26.9373 19.8007 26.8123C19.9257 26.6872 19.9959 26.5177 19.9959 26.3409C19.9959 26.1641 19.9257 25.9945 19.8007 25.8695C19.6756 25.7444 19.5061 25.6742 19.3293 25.6742Z" fill="#225CF3"/>
<path d="M26.4627 25.6742H21.7961C21.6193 25.6742 21.4497 25.7444 21.3247 25.8695C21.1996 25.9945 21.1294 26.1641 21.1294 26.3409C21.1294 26.5177 21.1996 26.6872 21.3247 26.8123C21.4497 26.9373 21.6193 27.0075 21.7961 27.0075H26.4627C26.6395 27.0075 26.8091 26.9373 26.9341 26.8123C27.0592 26.6872 27.1294 26.5177 27.1294 26.3409C27.1294 26.1641 27.0592 25.9945 26.9341 25.8695C26.8091 25.7444 26.6395 25.6742 26.4627 25.6742Z" fill="#225CF3"/>
<path d="M27.1292 23.0074H22.4626C22.2858 23.0074 22.1162 23.0777 21.9912 23.2027C21.8661 23.3277 21.7959 23.4973 21.7959 23.6741C21.7959 23.8509 21.8661 24.0205 21.9912 24.1455C22.1162 24.2705 22.2858 24.3408 22.4626 24.3408H27.1292C27.306 24.3408 27.4756 24.2705 27.6006 24.1455C27.7257 24.0205 27.7959 23.8509 27.7959 23.6741C27.7959 23.4973 27.7257 23.3277 27.6006 23.2027C27.4756 23.0777 27.306 23.0074 27.1292 23.0074Z" fill="#225CF3"/>
<path d="M27.156 21.6742C26.9606 19.3268 26.3227 17.0377 25.276 14.9275C24.2733 13.0207 22.8285 11.3817 21.0626 10.1475L22.6626 6.62086C22.7142 6.51546 22.7371 6.39832 22.7289 6.28126C22.7207 6.1642 22.6817 6.05138 22.616 5.9542C22.5553 5.86894 22.4754 5.79917 22.3827 5.75053C22.2901 5.70188 22.1873 5.67573 22.0826 5.6742H11.196C11.0839 5.67392 10.9736 5.7019 10.8752 5.75555C10.7768 5.8092 10.6935 5.8868 10.633 5.98116C10.5725 6.07551 10.5368 6.1836 10.5292 6.29541C10.5216 6.40722 10.5422 6.51915 10.5893 6.62086L12.2226 10.1609C10.4696 11.3961 9.03475 13.0298 8.03596 14.9275C6.60263 17.5942 6.15596 20.8542 6.03596 23.1142C6.01631 23.445 6.0654 23.7764 6.18014 24.0873C6.29488 24.3983 6.47278 24.6821 6.70263 24.9209C6.9442 25.1555 7.23024 25.3395 7.54393 25.462C7.85763 25.5845 8.19264 25.643 8.52929 25.6342H12.6626V24.3409H8.47596C8.32508 24.3404 8.17586 24.3094 8.03724 24.2499C7.89862 24.1903 7.77347 24.1033 7.66929 23.9942C7.56496 23.8859 7.48439 23.7571 7.43273 23.6159C7.38107 23.4747 7.35946 23.3242 7.36929 23.1742C7.46263 21.4342 7.82929 18.1209 9.20929 15.5409C10.1821 13.6923 11.6206 12.1296 13.3826 11.0075H14.0493C13.5975 11.6325 13.1813 12.2824 12.8026 12.9542C12.4169 13.669 12.0892 14.4136 11.8226 15.1809L12.736 15.7942C13.0058 14.9982 13.3379 14.2247 13.7293 13.4809C14.2099 12.616 14.7559 11.7891 15.3626 11.0075H16.0293C16.4765 12.0765 16.7922 13.1958 16.9693 14.3409C17.1141 15.1909 17.1855 16.0519 17.1826 16.9142L18.236 16.1742C18.2066 15.5037 18.1354 14.8358 18.0226 14.1742C17.8438 13.093 17.5579 12.0322 17.1693 11.0075H17.6893L18.296 9.6742H13.4693L12.236 7.00753H21.0426L19.376 10.6542C19.6617 10.8072 19.9357 10.981 20.196 11.1742C21.8294 12.3011 23.169 13.8031 24.1026 15.5542C25.0377 17.4743 25.6182 19.5476 25.816 21.6742H27.156Z" fill="#225CF3"/>
</g>
<defs>
<clipPath id="clip0_150_3145">
<rect width="24" height="24" fill="white" transform="translate(4.6626 4.34082)"/>
</clipPath>
</defs>
</svg>
