<svg width="33" height="33" viewBox="0 0 33 33" fill="none" xmlns="http://www.w3.org/2000/svg">
<rect x="0.662598" y="0.34082" width="32" height="32" rx="4" fill="#F5F8FE"/>
<path d="M11.1766 6.34082C9.87257 6.46982 8.99457 6.75982 8.33857 7.41682C7.16357 8.59382 7.16357 10.4888 7.16357 14.2798V18.2998C7.16357 22.0898 7.16357 23.9858 8.33857 25.1638C9.51357 26.3418 11.4056 26.3408 15.1886 26.3408H17.1956C20.9786 26.3408 22.8706 26.3408 24.0456 25.1638C25.1126 24.0938 25.2116 22.4468 25.2206 19.3178" stroke="#225CF3" stroke-width="1.5" stroke-linecap="round" stroke-linejoin="round"/>
<path d="M15.1888 11.3409L16.1918 14.8409C16.7518 15.9509 17.4548 16.2409 19.2018 16.3409C20.5908 16.3069 21.3968 16.1429 22.0848 15.5449C22.5538 15.1369 22.7658 14.5219 22.8688 13.9099L23.2128 11.8409M25.7208 9.84086V14.8409M13.2638 9.27386C14.8508 7.95686 16.2648 7.24986 19.1978 6.47186C19.5287 6.38451 19.8768 6.38623 20.2068 6.47686C22.8028 7.19086 24.2048 7.82486 26.0828 9.23486C26.1628 9.29486 26.1868 9.40686 26.1308 9.48986C25.5178 10.3919 24.1488 11.1229 20.7908 12.4249C20.0914 12.694 19.3162 12.6897 18.6198 12.4129C15.0438 10.9929 13.3998 10.2329 13.1998 9.44386C13.1933 9.41238 13.1959 9.37969 13.2072 9.3496C13.2185 9.31951 13.2381 9.29325 13.2638 9.27386Z" stroke="#225CF3" stroke-width="1.5" stroke-linecap="round" stroke-linejoin="round"/>
</svg>
