<svg width="33" height="33" viewBox="0 0 33 33" fill="none" xmlns="http://www.w3.org/2000/svg">
<rect x="0.662598" y="0.34082" width="32" height="32" rx="4" fill="#F5F8FE"/>
<path d="M9 15V23C9 23.5304 9.21071 24.0391 9.58579 24.4142C9.96086 24.7893 10.4696 25 11 25H23C23.5304 25 24.0391 24.7893 24.4142 24.4142C24.7893 24.0391 25 23.5304 25 23V15" stroke="#225CF3" stroke-linecap="round" stroke-linejoin="round"/>
<path d="M17 9.5C17 8.57174 16.6313 7.6815 15.9749 7.02513C15.3185 6.36875 14.4283 6 13.5 6C12.837 6 12.2011 6.26339 11.7322 6.73223C11.2634 7.20107 11 7.83696 11 8.5C11 9.16304 11.2634 9.79893 11.7322 10.2678C12.2011 10.7366 12.837 11 13.5 11H17M17 9.5V11M17 9.5C17 8.57174 17.3687 7.6815 18.0251 7.02513C18.6815 6.36875 19.5717 6 20.5 6C21.163 6 21.7989 6.26339 22.2678 6.73223C22.7366 7.20107 23 7.83696 23 8.5C23 8.8283 22.9353 9.15339 22.8097 9.45671C22.6841 9.76002 22.4999 10.0356 22.2678 10.2678C22.0356 10.4999 21.76 10.6841 21.4567 10.8097C21.1534 10.9353 20.8283 11 20.5 11H17" stroke="#225CF3" stroke-linejoin="round"/>
<path d="M17 15V25M8 11H26V15H8V11Z" stroke="#225CF3" stroke-linecap="round" stroke-linejoin="round"/>
</svg>
