<svg width="172" height="63" viewBox="0 0 172 63" fill="none" xmlns="http://www.w3.org/2000/svg">
<path d="M40.4616 42.9814H36.204V22.8698H40.4616V30.7968H49.173V22.8698H53.4306V42.9814H49.173V34.4662H40.4616V42.9814ZM64.5423 35.2785H73.4497L74.5701 38.6678H63.3098L64.5423 35.2785ZM74.374 42.9814L68.996 27.5196L63.5059 42.9814H59.2203L66.7831 22.8698H71.4329L78.9398 42.9814H74.374ZM89.0087 42.9814H84.7511V22.8698H89.0087V42.9814ZM109.592 42.9814L100.376 28.9481V42.9814H96.4828V22.8698H101.077L109.844 36.2029V22.8698H113.765V42.9814H109.592ZM125.492 40.4885C125.492 41.2541 125.249 41.889 124.764 42.3932C124.278 42.8787 123.653 43.1215 122.887 43.1215C122.121 43.1215 121.486 42.8787 120.982 42.3932C120.497 41.889 120.254 41.2541 120.254 40.4885C120.254 39.7042 120.497 39.0693 120.982 38.5838C121.486 38.0796 122.121 37.8275 122.887 37.8275C123.653 37.8275 124.278 38.0796 124.764 38.5838C125.249 39.0693 125.492 39.7042 125.492 40.4885ZM145.511 39.284V42.9814H131.982V22.8698H145.315V26.5672H136.24V30.7968H144.475V34.4662H136.24V39.284H145.511ZM159.309 42.9814H152.166V22.8698H159.309C161.438 22.8698 163.268 23.2899 164.799 24.1303C166.33 24.9706 167.507 26.1377 168.328 27.6316C169.15 29.1255 169.561 30.8528 169.561 32.8136C169.561 34.7556 169.14 36.5016 168.3 38.0516C167.46 39.5828 166.265 40.7873 164.715 41.6649C163.184 42.5426 161.382 42.9814 159.309 42.9814ZM156.424 26.5392V39.312H159.085C160.429 39.312 161.55 39.06 162.446 38.5558C163.361 38.0516 164.043 37.314 164.491 36.3429C164.958 35.3719 165.191 34.1954 165.191 32.8136C165.191 31.4691 164.958 30.33 164.491 29.3963C164.043 28.4626 163.361 27.753 162.446 27.2675C161.55 26.7819 160.429 26.5392 159.085 26.5392H156.424Z" fill="white"/>
<path d="M30.4858 27.1409H23.9506C23.8312 26.2954 23.5875 25.5444 23.2195 24.8879C22.8515 24.2214 22.379 23.6545 21.8021 23.187C21.2251 22.7194 20.5587 22.3614 19.8027 22.1127C19.0567 21.864 18.246 21.7397 17.3707 21.7397C15.7891 21.7397 14.4115 22.1326 13.2377 22.9184C12.064 23.6942 11.1538 24.8282 10.5073 26.3202C9.86071 27.8023 9.53744 29.6027 9.53744 31.7215C9.53744 33.8998 9.86071 35.7301 10.5073 37.2122C11.1638 38.6943 12.0789 39.8133 13.2526 40.5693C14.4264 41.3253 15.7841 41.7032 17.3259 41.7032C18.1913 41.7032 18.992 41.5888 19.7281 41.3601C20.4741 41.1313 21.1356 40.7981 21.7125 40.3604C22.2895 39.9128 22.7669 39.3707 23.1449 38.7341C23.5328 38.0975 23.8014 37.3713 23.9506 36.5557L30.4858 36.5855C30.3167 37.988 29.8939 39.3408 29.2175 40.6439C28.5511 41.937 27.6509 43.0958 26.5169 44.1204C25.3929 45.1349 24.0501 45.9406 22.4884 46.5375C20.9367 47.1243 19.181 47.4178 17.2215 47.4178C14.496 47.4178 12.059 46.8011 9.91045 45.5676C7.77185 44.3342 6.08087 42.5487 4.83749 40.2112C3.60407 37.8737 2.98736 35.0437 2.98736 31.7215C2.98736 28.3892 3.61402 25.5543 4.86734 23.2168C6.12065 20.8793 7.82159 19.0987 9.97013 17.8753C12.1187 16.6418 14.5358 16.0251 17.2215 16.0251C18.992 16.0251 20.6333 16.2738 22.1452 16.7712C23.6671 17.2685 25.0149 17.9946 26.1887 18.9495C27.3624 19.8945 28.3173 21.0533 29.0534 22.426C29.7994 23.7987 30.2769 25.3703 30.4858 27.1409Z" fill="white"/>
<rect x="0.868652" y="14.49" width="21.008" height="36.6721" rx="1.75067" fill="white"/>
<path fill-rule="evenodd" clip-rule="evenodd" d="M21.8766 16.6859C20.4394 16.2454 18.8877 16.0251 17.2214 16.0251C14.5357 16.0251 12.1186 16.6419 9.97008 17.8753C7.82153 19.0988 6.1206 20.8793 4.86728 23.2168C3.61396 25.5543 2.9873 28.3892 2.9873 31.7215C2.9873 35.0438 3.60402 37.8737 4.83744 40.2112C6.08081 42.5487 7.7718 44.3342 9.9104 45.5677C12.0589 46.8011 14.496 47.4178 17.2214 47.4178C18.9278 47.4178 20.4795 47.1953 21.8766 46.7503V40.2283C21.8228 40.2732 21.7681 40.3172 21.7125 40.3604C21.1356 40.7981 20.4741 41.1313 19.7281 41.3601C18.992 41.5889 18.1913 41.7033 17.3259 41.7033C15.7841 41.7033 14.4263 41.3253 13.2526 40.5693C12.0788 39.8133 11.1637 38.6943 10.5072 37.2122C9.86066 35.7301 9.53739 33.8999 9.53739 31.7215C9.53739 29.6028 9.86066 27.8024 10.5072 26.3203C11.1538 24.8282 12.0639 23.6943 13.2377 22.9184C14.4114 22.1326 15.7891 21.7397 17.3706 21.7397C18.246 21.7397 19.0566 21.864 19.8027 22.1127C20.5586 22.3614 21.2251 22.7195 21.802 23.187C21.8271 23.2073 21.8519 23.2278 21.8766 23.2485V16.6859Z" fill="#225CF3"/>
</svg>
