<svg width="33" height="33" viewBox="0 0 33 33" fill="none" xmlns="http://www.w3.org/2000/svg">
<rect x="0.662598" y="0.34082" width="32" height="32" rx="4" fill="#F5F8FE"/>
<path d="M17 5.5C17.1989 5.5 17.3897 5.57902 17.5303 5.71967C17.671 5.86032 17.75 6.05109 17.75 6.25V10.75C17.75 10.9489 17.671 11.1397 17.5303 11.2803C17.3897 11.421 17.1989 11.5 17 11.5C16.8011 11.5 16.6103 11.421 16.4697 11.2803C16.329 11.1397 16.25 10.9489 16.25 10.75V6.25C16.25 6.05109 16.329 5.86032 16.4697 5.71967C16.6103 5.57902 16.8011 5.5 17 5.5ZM17 20.5C17.1989 20.5 17.3897 20.579 17.5303 20.7197C17.671 20.8603 17.75 21.0511 17.75 21.25V25.75C17.75 25.9489 17.671 26.1397 17.5303 26.2803C17.3897 26.421 17.1989 26.5 17 26.5C16.8011 26.5 16.6103 26.421 16.4697 26.2803C16.329 26.1397 16.25 25.9489 16.25 25.75V21.25C16.25 21.0511 16.329 20.8603 16.4697 20.7197C16.6103 20.579 16.8011 20.5 17 20.5ZM27.5 16C27.5 16.1989 27.421 16.3897 27.2803 16.5303C27.1397 16.671 26.9489 16.75 26.75 16.75H22.25C22.0511 16.75 21.8603 16.671 21.7197 16.5303C21.579 16.3897 21.5 16.1989 21.5 16C21.5 15.8011 21.579 15.6103 21.7197 15.4697C21.8603 15.329 22.0511 15.25 22.25 15.25H26.75C26.9489 15.25 27.1397 15.329 27.2803 15.4697C27.421 15.6103 27.5 15.8011 27.5 16ZM12.5 16C12.5 16.1989 12.421 16.3897 12.2803 16.5303C12.1397 16.671 11.9489 16.75 11.75 16.75H7.25C7.05109 16.75 6.86032 16.671 6.71967 16.5303C6.57902 16.3897 6.5 16.1989 6.5 16C6.5 15.8011 6.57902 15.6103 6.71967 15.4697C6.86032 15.329 7.05109 15.25 7.25 15.25H11.75C11.9489 15.25 12.1397 15.329 12.2803 15.4697C12.421 15.6103 12.5 15.8011 12.5 16ZM9.575 8.575C9.71565 8.4344 9.90638 8.35541 10.1053 8.35541C10.3041 8.35541 10.4949 8.4344 10.6355 8.575L13.82 11.758C13.9566 11.8995 14.0322 12.0889 14.0305 12.2856C14.0288 12.4822 13.9499 12.6703 13.8109 12.8094C13.6718 12.9484 13.4837 13.0273 13.2871 13.029C13.0904 13.0307 12.901 12.9551 12.7595 12.8185L9.575 9.6355C9.4344 9.49485 9.35541 9.30412 9.35541 9.10525C9.35541 8.90638 9.4344 8.71565 9.575 8.575ZM20.1815 19.1815C20.3221 19.0409 20.5129 18.9619 20.7118 18.9619C20.9106 18.9619 21.1014 19.0409 21.242 19.1815L24.425 22.3645C24.5616 22.506 24.6372 22.6954 24.6355 22.8921C24.6338 23.0887 24.5549 23.2768 24.4159 23.4159C24.2768 23.5549 24.0887 23.6338 23.8921 23.6355C23.6954 23.6372 23.506 23.5616 23.3645 23.425L20.1815 20.242C20.0409 20.1014 19.9619 19.9106 19.9619 19.7118C19.9619 19.5129 20.0409 19.3221 20.1815 19.1815ZM24.425 8.5765C24.5651 8.71708 24.6438 8.90749 24.6438 9.106C24.6438 9.30451 24.5651 9.49492 24.425 9.6355L21.242 12.82C21.1005 12.9566 20.9111 13.0322 20.7144 13.0305C20.5178 13.0288 20.3297 12.9499 20.1906 12.8109C20.0516 12.6718 19.9727 12.4837 19.971 12.2871C19.9693 12.0904 20.0449 11.901 20.1815 11.7595L23.3645 8.5765C23.5051 8.4359 23.6959 8.35691 23.8948 8.35691C24.0936 8.35691 24.2844 8.4359 24.425 8.5765ZM13.8185 19.1815C13.9591 19.3221 14.0381 19.5129 14.0381 19.7118C14.0381 19.9106 13.9591 20.1014 13.8185 20.242L10.6355 23.425C10.494 23.5616 10.3046 23.6372 10.1079 23.6355C9.9113 23.6338 9.72319 23.5549 9.58414 23.4159C9.44508 23.2768 9.3662 23.0887 9.36449 22.8921C9.36279 22.6954 9.43838 22.506 9.575 22.3645L12.758 19.1815C12.8986 19.0409 13.0894 18.9619 13.2882 18.9619C13.4871 18.9619 13.6779 19.0409 13.8185 19.1815Z" fill="#225CF3"/>
</svg>
