<svg width="25" height="24" viewBox="0 0 25 24" fill="none" xmlns="http://www.w3.org/2000/svg">
<path d="M19.5459 12C19.5459 12.2652 19.4405 12.5196 19.253 12.7071C19.0655 12.8946 18.8111 13 18.5459 13C18.2807 13 18.0263 12.8946 17.8388 12.7071C17.6513 12.5196 17.5459 12.2652 17.5459 12C17.5459 11.7348 17.6513 11.4804 17.8388 11.2929C18.0263 11.1054 18.2807 11 18.5459 11C18.8111 11 19.0655 11.1054 19.253 11.2929C19.4405 11.4804 19.5459 11.7348 19.5459 12Z" fill="#225CF3"/>
<path fill-rule="evenodd" clip-rule="evenodd" d="M10.4899 3.25H13.6019C15.4399 3.25 16.8959 3.25 18.0349 3.403C19.2069 3.561 20.1559 3.893 20.9049 4.641C21.8289 5.566 22.1239 6.804 22.2309 8.411C22.8079 8.664 23.2439 9.201 23.2909 9.881C23.2959 9.942 23.2959 10.007 23.2959 10.067V13.933C23.2959 13.993 23.2959 14.058 23.2919 14.118C23.2439 14.798 22.8079 15.336 22.2309 15.59C22.1239 17.196 21.8289 18.434 20.9049 19.359C20.1559 20.107 19.2069 20.439 18.0349 20.597C16.8949 20.75 15.4399 20.75 13.6019 20.75H10.4899C8.6519 20.75 7.1959 20.75 6.0569 20.597C4.8849 20.439 3.9359 20.107 3.1869 19.359C2.4389 18.61 2.1069 17.661 1.9489 16.489C1.7959 15.349 1.7959 13.894 1.7959 12.056V11.944C1.7959 10.106 1.7959 8.65 1.9489 7.511C2.1069 6.339 2.4389 5.39 3.1869 4.641C3.9359 3.893 4.8849 3.561 6.0569 3.403C7.1969 3.25 8.6519 3.25 10.4899 3.25ZM20.7139 15.75H18.7759C16.6309 15.75 14.7949 14.122 14.7949 12C14.7949 9.878 16.6309 8.25 18.7749 8.25H20.7129C20.5989 6.909 20.3419 6.2 19.8429 5.702C19.4199 5.279 18.8399 5.025 17.8339 4.89C16.8069 4.752 15.4519 4.75 13.5449 4.75H10.5449C8.6379 4.75 7.2839 4.752 6.2549 4.89C5.2499 5.025 4.6699 5.279 4.2469 5.702C3.8239 6.125 3.5699 6.705 3.4349 7.711C3.2969 8.739 3.2949 10.093 3.2949 12C3.2949 13.907 3.2969 15.262 3.4349 16.29C3.5699 17.295 3.8239 17.875 4.2469 18.298C4.6699 18.721 5.2499 18.975 6.2559 19.11C7.2839 19.248 8.6379 19.25 10.5449 19.25H13.5449C15.4519 19.25 16.8069 19.248 17.8349 19.11C18.8399 18.975 19.4199 18.721 19.8429 18.298C20.3419 17.8 20.5999 17.092 20.7139 15.75ZM5.7959 8C5.7959 7.80109 5.87492 7.61032 6.01557 7.46967C6.15622 7.32902 6.34699 7.25 6.5459 7.25H10.5459C10.7448 7.25 10.9356 7.32902 11.0762 7.46967C11.2169 7.61032 11.2959 7.80109 11.2959 8C11.2959 8.19891 11.2169 8.38968 11.0762 8.53033C10.9356 8.67098 10.7448 8.75 10.5459 8.75H6.5459C6.34699 8.75 6.15622 8.67098 6.01557 8.53033C5.87492 8.38968 5.7959 8.19891 5.7959 8ZM21.4699 9.75H18.7759C17.3519 9.75 16.2949 10.809 16.2949 12C16.2949 13.191 17.3519 14.25 18.7749 14.25H21.4929C21.6989 14.237 21.7879 14.098 21.7949 14.014V9.986C21.7879 9.902 21.6989 9.763 21.4929 9.751L21.4699 9.75Z" fill="#225CF3"/>
</svg>
